<svg width="91" height="91" viewBox="0 0 91 91" fill="none" xmlns="http://www.w3.org/2000/svg">
<path d="M58.532 79.25H73.375C74.8668 79.25 76.2976 78.6574 77.3525 77.6025C78.4074 76.5476 79 75.1168 79 73.625V60.3887C78.9976 59.9274 78.8818 59.4739 78.6628 59.0679C78.4438 58.662 78.1284 58.3162 77.7442 58.0609C77.3601 57.8056 76.919 57.6487 76.46 57.604C76.0009 57.5593 75.5379 57.6283 75.1117 57.8047C74.115 58.2161 73.0471 58.4275 71.9688 58.427C67.3176 58.427 63.5312 54.5246 63.5312 49.7328C63.5312 44.941 67.3176 41.0387 71.9688 41.0387C73.0471 41.0381 74.115 41.2495 75.1117 41.6609C75.5401 41.8383 76.0056 41.907 76.467 41.8609C76.9283 41.8148 77.3711 41.6555 77.7559 41.3969C78.1407 41.1384 78.4557 40.7887 78.6728 40.3791C78.8898 39.9694 79.0022 39.5124 79 39.0488V25.8125C79 24.3207 78.4074 22.8899 77.3525 21.835C76.2976 20.7801 74.8668 20.1875 73.375 20.1875H60.6414C60.694 19.7206 60.7198 19.2511 60.7188 18.7812C60.7188 15.4246 59.3853 12.2054 57.0118 9.83193C54.6383 7.45842 51.4191 6.125 48.0625 6.125C44.7059 6.125 41.4867 7.45842 39.1132 9.83193C36.7397 12.2054 35.4062 15.4246 35.4062 18.7812C35.4052 19.2511 35.431 19.7206 35.4836 20.1875H22.75C21.2582 20.1875 19.8274 20.7801 18.7725 21.835C17.7176 22.8899 17.125 24.3207 17.125 25.8125V37.1398C16.6581 37.0872 16.1886 37.0614 15.7188 37.0625C12.3621 37.0625 9.14294 38.3959 6.76943 40.7694C4.39592 43.1429 3.0625 46.3621 3.0625 49.7188C3.0625 53.0754 4.39592 56.2946 6.76943 58.6681C9.14294 61.0416 12.3621 62.375 15.7188 62.375C16.1886 62.3761 16.6581 62.3503 17.125 62.2977V73.625C17.125 75.1168 17.7176 76.5476 18.7725 77.6025C19.8274 78.6574 21.2582 79.25 22.75 79.25H37.593" fill="#3E3E3E"/>
</svg>
