<svg width="80" height="12" viewBox="0 0 80 12" fill="none" xmlns="http://www.w3.org/2000/svg">
<path d="M6.38889 0.375214C6.28102 0.371951 6.17516 0.406166 6.08782 0.472519L0.951168 4.37907C0.867774 4.44257 0.805713 4.53205 0.773872 4.63472C0.742031 4.73739 0.742043 4.84797 0.773907 4.95064L2.73592 11.2717C2.7678 11.3744 2.82992 11.4639 2.91336 11.5273C2.9968 11.5908 3.09729 11.625 3.20043 11.625H9.54943C9.65257 11.625 9.75306 11.5908 9.8365 11.5273C9.91994 11.4639 9.98206 11.3744 10.0139 11.2717L11.9761 4.95064C12.008 4.84797 12.008 4.73739 11.9761 4.63472C11.9443 4.53205 11.8822 4.44257 11.7988 4.37907L6.66204 0.472519C6.58242 0.412036 6.48722 0.378121 6.38889 0.375214Z" fill="#EE4131"/>
<path d="M21.0878 0.679028L26.1784 10.7128C26.2253 10.8053 26.25 10.9101 26.25 11.0169C26.25 11.1236 26.2253 11.2285 26.1784 11.3209C26.1315 11.4134 26.064 11.4901 25.9828 11.5435C25.9016 11.5969 25.8094 11.625 25.7156 11.625H15.5344C15.4406 11.625 15.3484 11.5969 15.2672 11.5435C15.186 11.4901 15.1185 11.4134 15.0716 11.3209C15.0247 11.2285 15 11.1236 15 11.0169C15 10.9101 15.0247 10.8053 15.0716 10.7128L20.1622 0.679028C20.2091 0.586591 20.2766 0.509831 20.3578 0.456463C20.4391 0.403096 20.5312 0.375 20.625 0.375C20.7188 0.375 20.8109 0.403096 20.8922 0.456463C20.9734 0.509831 21.0409 0.586591 21.0878 0.679028Z" fill="#FDB024"/>
<path d="M29.25 10.875V1.125H39V10.875H29.25Z" fill="#00A769"/>
<path d="M47.25 11.25C46.5237 11.25 45.8412 11.1121 45.2025 10.8363C44.5637 10.5605 44.0081 10.1865 43.5356 9.71437C43.0631 9.24222 42.6892 8.6866 42.4137 8.0475C42.1383 7.4084 42.0004 6.7259 42 6C41.9997 5.2741 42.1376 4.5916 42.4137 3.9525C42.6899 3.3134 43.0638 2.75777 43.5356 2.28562C44.0074 1.81347 44.563 1.4395 45.2025 1.1637C45.8419 0.8879 46.5244 0.75 47.25 0.75C47.9755 0.75 48.658 0.8879 49.2975 1.1637C49.9369 1.4395 50.4926 1.81347 50.9644 2.28562C51.4362 2.75777 51.8103 3.3134 52.0868 3.9525C52.3633 4.5916 52.501 5.2741 52.5 6C52.4989 6.7259 52.361 7.4084 52.0863 8.0475C51.8115 8.6866 51.4376 9.24222 50.9644 9.71437C50.4912 10.1865 49.9355 10.5607 49.2975 10.8368C48.6594 11.113 47.9769 11.2507 47.25 11.25Z" fill="#5B5498"/>
<path d="M63.375 0.75H58.125L55.5 6L58.125 11.25H63.375L66 6L63.375 0.75Z" fill="#99C7DF"/>
<path d="M79.5 6.75H75V11.25H73.5V6.75H69V5.25H73.5V0.75H75V5.25H79.5V6.75Z" fill="#1E1E1E"/>
</svg>
