<svg width="91" height="85" viewBox="0 0 91 85" fill="none" xmlns="http://www.w3.org/2000/svg">
<g clip-path="url(#clip0_4_163)">
<path d="M42.25 42.5C42.25 39.1875 41.0781 36.3594 38.7344 34.0156C36.3906 31.6719 33.5625 30.5 30.25 30.5C26.9375 30.5 24.1094 31.6719 21.7656 34.0156C19.4219 36.3594 18.25 39.1875 18.25 42.5C18.25 45.8125 19.4219 48.6406 21.7656 50.9844C24.1094 53.3281 26.9375 54.5 30.25 54.5C33.5625 54.5 36.3906 53.3281 38.7344 50.9844C41.0781 48.6406 42.25 45.8125 42.25 42.5ZM78.25 66.5C78.25 64.875 77.6562 63.4688 76.4688 62.2812C75.2812 61.0938 73.875 60.5 72.25 60.5C70.625 60.5 69.2188 61.0938 68.0312 62.2812C66.8438 63.4688 66.25 64.875 66.25 66.5C66.25 68.1562 66.8359 69.5703 68.0078 70.7422C69.1797 71.9141 70.5938 72.5 72.25 72.5C73.9062 72.5 75.3203 71.9141 76.4922 70.7422C77.6641 69.5703 78.25 68.1562 78.25 66.5ZM78.25 18.5C78.25 16.875 77.6562 15.4688 76.4688 14.2812C75.2812 13.0938 73.875 12.5 72.25 12.5C70.625 12.5 69.2188 13.0938 68.0312 14.2812C66.8438 15.4688 66.25 16.875 66.25 18.5C66.25 20.1562 66.8359 21.5703 68.0078 22.7422C69.1797 23.9141 70.5938 24.5 72.25 24.5C73.9062 24.5 75.3203 23.9141 76.4922 22.7422C77.6641 21.5703 78.25 20.1562 78.25 18.5ZM60.25 38.2344V46.9062C60.25 47.2188 60.1406 47.5234 59.9219 47.8203C59.7031 48.1172 59.4531 48.2812 59.1719 48.3125L51.9062 49.4375C51.5625 50.5312 51.0625 51.7188 50.4062 53C51.4688 54.5 52.875 56.2969 54.625 58.3906C54.8438 58.7344 54.9531 59.0469 54.9531 59.3281C54.9531 59.7031 54.8438 60 54.625 60.2188C53.9062 61.1562 52.6172 62.5547 50.7578 64.4141C48.8984 66.2734 47.6719 67.2031 47.0781 67.2031C46.7344 67.2031 46.4062 67.0938 46.0938 66.875L40.7031 62.6562C39.5469 63.25 38.3438 63.7344 37.0938 64.1094C36.75 67.4844 36.3906 69.9062 36.0156 71.375C35.7969 72.125 35.3281 72.5 34.6094 72.5H25.8906C25.5469 72.5 25.2344 72.3828 24.9531 72.1484C24.6719 71.9141 24.5156 71.6406 24.4844 71.3281L23.4062 64.1562C22.3438 63.8438 21.1719 63.3594 19.8906 62.7031L14.3594 66.875C14.1406 67.0938 13.8281 67.2031 13.4219 67.2031C13.0781 67.2031 12.75 67.0781 12.4375 66.8281C7.9375 62.6719 5.6875 60.1719 5.6875 59.3281C5.6875 59.0469 5.79688 58.75 6.01562 58.4375C6.32812 58 6.96875 57.1719 7.9375 55.9531C8.90625 54.7344 9.64062 53.7812 10.1406 53.0938C9.42188 51.7188 8.875 50.4375 8.5 49.25L1.375 48.125C1.0625 48.0938 0.796875 47.9453 0.578125 47.6797C0.359375 47.4141 0.25 47.1094 0.25 46.7656V38.0938C0.25 37.7812 0.359375 37.4766 0.578125 37.1797C0.796875 36.8828 1.04688 36.7188 1.32812 36.6875L8.59375 35.5625C8.9375 34.4688 9.4375 33.2812 10.0938 32C9.03125 30.5 7.625 28.7031 5.875 26.6094C5.65625 26.2656 5.54688 25.9531 5.54688 25.6719C5.54688 25.2969 5.65625 24.9844 5.875 24.7344C6.5625 23.7969 7.84375 22.4062 9.71875 20.5625C11.5938 18.7188 12.8281 17.7969 13.4219 17.7969C13.7656 17.7969 14.0938 17.9062 14.4062 18.125L19.7969 22.3438C20.8594 21.7812 22.0625 21.2812 23.4062 20.8438C23.75 17.4688 24.1094 15.0625 24.4844 13.625C24.7031 12.875 25.1719 12.5 25.8906 12.5H34.6094C34.9531 12.5 35.2656 12.6172 35.5469 12.8516C35.8281 13.0859 35.9844 13.3594 36.0156 13.6719L37.0938 20.8438C38.1562 21.1562 39.3281 21.6406 40.6094 22.2969L46.1406 18.125C46.3906 17.9062 46.7031 17.7969 47.0781 17.7969C47.4219 17.7969 47.75 17.9219 48.0625 18.1719C52.5625 22.3281 54.8125 24.8281 54.8125 25.6719C54.8125 25.9219 54.7031 26.2188 54.4844 26.5625C54.1094 27.0625 53.4531 27.9062 52.5156 29.0938C51.5781 30.2812 50.875 31.2188 50.4062 31.9062C51.125 33.4062 51.6562 34.6875 52 35.75L59.125 36.8281C59.4375 36.8906 59.7031 37.0547 59.9219 37.3203C60.1406 37.5859 60.25 37.8906 60.25 38.2344ZM90.25 63.2188V69.7812C90.25 70.2812 87.9219 70.7656 83.2656 71.2344C82.8906 72.0781 82.4219 72.8906 81.8594 73.6719C83.4531 77.2031 84.25 79.3594 84.25 80.1406C84.25 80.2656 84.1875 80.375 84.0625 80.4688C80.25 82.6875 78.3125 83.7969 78.25 83.7969C78 83.7969 77.2812 83.0625 76.0938 81.5938C74.9062 80.125 74.0938 79.0625 73.6562 78.4062C73.0312 78.4688 72.5625 78.5 72.25 78.5C71.9375 78.5 71.4688 78.4688 70.8438 78.4062C70.4062 79.0625 69.5938 80.125 68.4062 81.5938C67.2188 83.0625 66.5 83.7969 66.25 83.7969C66.1875 83.7969 64.25 82.6875 60.4375 80.4688C60.3125 80.375 60.25 80.2656 60.25 80.1406C60.25 79.3594 61.0469 77.2031 62.6406 73.6719C62.0781 72.8906 61.6094 72.0781 61.2344 71.2344C56.5781 70.7656 54.25 70.2812 54.25 69.7812V63.2188C54.25 62.7188 56.5781 62.2344 61.2344 61.7656C61.6406 60.8594 62.1094 60.0469 62.6406 59.3281C61.0469 55.7969 60.25 53.6406 60.25 52.8594C60.25 52.7344 60.3125 52.625 60.4375 52.5312C60.5625 52.4688 61.1094 52.1562 62.0781 51.5938C63.0469 51.0312 63.9688 50.5 64.8438 50C65.7188 49.5 66.1875 49.25 66.25 49.25C66.5 49.25 67.2188 49.9766 68.4062 51.4297C69.5938 52.8828 70.4062 53.9375 70.8438 54.5938C71.4688 54.5312 71.9375 54.5 72.25 54.5C72.5625 54.5 73.0312 54.5312 73.6562 54.5938C75.25 52.375 76.6875 50.625 77.9688 49.3438L78.25 49.25C78.375 49.25 80.3125 50.3438 84.0625 52.5312C84.1875 52.625 84.25 52.7344 84.25 52.8594C84.25 53.6406 83.4531 55.7969 81.8594 59.3281C82.3906 60.0469 82.8594 60.8594 83.2656 61.7656C87.9219 62.2344 90.25 62.7188 90.25 63.2188ZM90.25 15.2188V21.7812C90.25 22.2812 87.9219 22.7656 83.2656 23.2344C82.8906 24.0781 82.4219 24.8906 81.8594 25.6719C83.4531 29.2031 84.25 31.3594 84.25 32.1406C84.25 32.2656 84.1875 32.375 84.0625 32.4688C80.25 34.6875 78.3125 35.7969 78.25 35.7969C78 35.7969 77.2812 35.0625 76.0938 33.5938C74.9062 32.125 74.0938 31.0625 73.6562 30.4062C73.0312 30.4688 72.5625 30.5 72.25 30.5C71.9375 30.5 71.4688 30.4688 70.8438 30.4062C70.4062 31.0625 69.5938 32.125 68.4062 33.5938C67.2188 35.0625 66.5 35.7969 66.25 35.7969C66.1875 35.7969 64.25 34.6875 60.4375 32.4688C60.3125 32.375 60.25 32.2656 60.25 32.1406C60.25 31.3594 61.0469 29.2031 62.6406 25.6719C62.0781 24.8906 61.6094 24.0781 61.2344 23.2344C56.5781 22.7656 54.25 22.2812 54.25 21.7812V15.2188C54.25 14.7188 56.5781 14.2344 61.2344 13.7656C61.6406 12.8594 62.1094 12.0469 62.6406 11.3281C61.0469 7.79688 60.25 5.64062 60.25 4.85938C60.25 4.73438 60.3125 4.625 60.4375 4.53125C60.5625 4.46875 61.1094 4.15625 62.0781 3.59375C63.0469 3.03125 63.9688 2.5 64.8438 2C65.7188 1.5 66.1875 1.25 66.25 1.25C66.5 1.25 67.2188 1.97656 68.4062 3.42969C69.5938 4.88281 70.4062 5.9375 70.8438 6.59375C71.4688 6.53125 71.9375 6.5 72.25 6.5C72.5625 6.5 73.0312 6.53125 73.6562 6.59375C75.25 4.375 76.6875 2.625 77.9688 1.34375L78.25 1.25C78.375 1.25 80.3125 2.34375 84.0625 4.53125C84.1875 4.625 84.25 4.73438 84.25 4.85938C84.25 5.64062 83.4531 7.79688 81.8594 11.3281C82.3906 12.0469 82.8594 12.8594 83.2656 13.7656C87.9219 14.2344 90.25 14.7188 90.25 15.2188Z" fill="#3E3E3E"/>
</g>
<defs>
<clipPath id="clip0_4_163">
<rect width="90" height="84" fill="white" transform="translate(0.25 0.5)"/>
</clipPath>
</defs>
</svg>
