<svg width="91" height="91" viewBox="0 0 91 91" fill="none" xmlns="http://www.w3.org/2000/svg">
<path d="M87.9375 45.5C87.9375 46.2459 87.6412 46.9613 87.1137 47.4887C86.5863 48.0162 85.8709 48.3125 85.125 48.3125H79.2645C78.5945 52.2423 76.5572 55.8088 73.5125 58.382C70.4677 60.9552 66.6115 62.3695 62.625 62.375H48.5625V70.8125H57C59.9837 70.8125 62.8452 71.9978 64.9549 74.1076C67.0647 76.2173 68.25 79.0788 68.25 82.0625C68.25 82.8084 67.9537 83.5238 67.4262 84.0512C66.8988 84.5787 66.1834 84.875 65.4375 84.875C64.6916 84.875 63.9762 84.5787 63.4488 84.0512C62.9213 83.5238 62.625 82.8084 62.625 82.0625C62.625 80.5707 62.0324 79.1399 60.9775 78.085C59.9226 77.0301 58.4918 76.4375 57 76.4375H48.5625V82.0625C48.5625 82.8084 48.2662 83.5238 47.7387 84.0512C47.2113 84.5787 46.4959 84.875 45.75 84.875C45.0041 84.875 44.2887 84.5787 43.7613 84.0512C43.2338 83.5238 42.9375 82.8084 42.9375 82.0625V76.4375H34.5C33.0082 76.4375 31.5774 77.0301 30.5225 78.085C29.4676 79.1399 28.875 80.5707 28.875 82.0625C28.875 82.8084 28.5787 83.5238 28.0512 84.0512C27.5238 84.5787 26.8084 84.875 26.0625 84.875C25.3166 84.875 24.6012 84.5787 24.0738 84.0512C23.5463 83.5238 23.25 82.8084 23.25 82.0625C23.25 79.0788 24.4353 76.2173 26.545 74.1076C28.6548 71.9978 31.5163 70.8125 34.5 70.8125H42.9375V62.375H28.875C24.8885 62.3695 21.0323 60.9552 17.9875 58.382C14.9428 55.8088 12.9055 52.2423 12.2355 48.3125H6.375C5.62908 48.3125 4.91371 48.0162 4.38626 47.4887C3.85882 46.9613 3.5625 46.2459 3.5625 45.5C3.5625 44.7541 3.85882 44.0387 4.38626 43.5113C4.91371 42.9838 5.62908 42.6875 6.375 42.6875H14.8125C15.5584 42.6875 16.2738 42.9838 16.8012 43.5113C17.3287 44.0387 17.625 44.7541 17.625 45.5C17.625 48.4837 18.8103 51.3452 20.92 53.4549C23.0298 55.5647 25.8913 56.75 28.875 56.75H62.625C65.6087 56.75 68.4702 55.5647 70.5799 53.4549C72.6897 51.3452 73.875 48.4837 73.875 45.5C73.875 44.7541 74.1713 44.0387 74.6988 43.5113C75.2262 42.9838 75.9416 42.6875 76.6875 42.6875H85.125C85.8709 42.6875 86.5863 42.9838 87.1137 43.5113C87.6412 44.0387 87.9375 44.7541 87.9375 45.5ZM28.875 51.125H62.625C63.4308 51.125 64.2273 50.9519 64.9604 50.6174C65.6935 50.2828 66.3462 49.7947 66.8742 49.1859C67.4023 48.5772 67.7933 47.8621 68.021 47.0891C68.2487 46.3161 68.3076 45.5032 68.1937 44.7055L63.3703 10.9555C63.1735 9.61726 62.5034 8.39398 61.4816 7.50767C60.4598 6.62137 59.1542 6.13079 57.8016 6.125H33.6984C32.3458 6.13079 31.0402 6.62137 30.0184 7.50767C28.9966 8.39398 28.3265 9.61726 28.1297 10.9555L23.3063 44.7055C23.1924 45.5032 23.2513 46.3161 23.479 47.0891C23.7067 47.8621 24.0977 48.5772 24.6258 49.1859C25.1538 49.7947 25.8065 50.2828 26.5396 50.6174C27.2727 50.9519 28.0692 51.125 28.875 51.125Z" fill="#3E3E3E"/>
</svg>
