<svg width="30" height="31" viewBox="0 0 30 31" fill="none" xmlns="http://www.w3.org/2000/svg">
<path fill-rule="evenodd" clip-rule="evenodd" d="M12.2175 6.50004L4.69751 5.17504L4.91501 3.94254C4.92934 3.86168 4.95947 3.78444 5.00366 3.71523C5.04786 3.64602 5.10527 3.58619 5.1726 3.53918C5.23993 3.49216 5.31587 3.45888 5.39607 3.44122C5.47627 3.42357 5.55916 3.42189 5.64001 3.43629L23.0138 6.50004H23.1238H23.015L25.3338 6.90879C25.4147 6.92298 25.4921 6.953 25.5615 6.99714C25.6308 7.04127 25.6908 7.09866 25.7379 7.166C25.7851 7.23335 25.8185 7.30933 25.8362 7.3896C25.8539 7.46988 25.8556 7.55286 25.8413 7.63379L25.6238 8.86379L23.0113 8.40379L22.0113 25.3963C21.974 26.0324 21.6952 26.6302 21.232 27.0677C20.7687 27.5051 20.1559 27.7492 19.5188 27.75H10.4825C9.84469 27.7502 9.23095 27.5065 8.76689 27.069C8.30284 26.6314 8.02357 26.033 7.98626 25.3963L6.98751 8.37504H22.85L12.2175 6.50004ZM11.25 11.5L11.875 22.75H13.75L13.25 11.5H11.25ZM16.875 11.5L16.25 22.75H18.125L18.75 11.5H16.875ZM13.5675 1.66129L18.4925 2.52879C18.5734 2.54312 18.6506 2.57325 18.7198 2.61745C18.789 2.66165 18.8489 2.71905 18.8959 2.78638C18.9429 2.85371 18.9762 2.92965 18.9938 3.00985C19.0115 3.09005 19.0132 3.17295 18.9988 3.25379L18.7813 4.48379L12.6263 3.39879L12.8438 2.16754C12.8581 2.08668 12.8882 2.00944 12.9324 1.94023C12.9766 1.87102 13.034 1.81119 13.1013 1.76418C13.1687 1.71716 13.2446 1.68388 13.3248 1.66622C13.405 1.64857 13.4867 1.64689 13.5675 1.66129Z" fill="black"/>
</svg>
