<svg width="68" height="69" viewBox="0 0 68 69" fill="none" xmlns="http://www.w3.org/2000/svg">
<path d="M33.75 34.375C31.9742 34.375 30.1983 34.0599 28.8141 33.4297L9.30234 24.5321C8.40981 24.1261 6.32812 22.9382 6.32812 20.6957C6.32812 18.4532 8.40981 17.268 9.30498 16.8566L28.9854 7.88257C31.6973 6.64331 35.7895 6.64331 38.5027 7.88257L58.195 16.8566C59.0902 17.264 61.1719 18.4519 61.1719 20.6957C61.1719 22.9396 59.0902 24.1234 58.195 24.5334L38.6833 33.4297C37.3017 34.0599 35.5258 34.375 33.75 34.375Z" fill="#3E3E3E"/>
<path d="M58.1871 30.5267L56.1977 29.6289L51.0864 31.9677L38.6938 37.6366C37.3096 38.2694 35.5298 38.5845 33.7579 38.5845C31.986 38.5845 30.2076 38.2694 28.8246 37.6366L16.4228 31.9677L11.3102 29.6289L9.30366 30.5307C8.40981 30.938 6.32812 32.1338 6.32812 34.375C6.32812 36.6162 8.40981 37.8133 9.30234 38.2207L28.8141 47.1367C30.1904 47.7695 31.9689 48.0859 33.75 48.0859C35.5311 48.0859 37.3017 47.7695 38.6859 47.138L58.1805 38.2246C59.0783 37.8172 61.1719 36.6281 61.1719 34.375C61.1719 32.1219 59.0928 30.938 58.1871 30.5267Z" fill="#3E3E3E"/>
<path d="M58.1871 44.2363L56.1977 43.3398L51.0864 45.6773L38.6938 51.3396C37.3096 51.9698 35.5298 52.2862 33.7579 52.2862C31.986 52.2862 30.2076 51.9711 28.8246 51.3396L16.4228 45.6707L11.3102 43.3398L9.30366 44.2416C8.40981 44.649 6.32812 45.8447 6.32812 48.0859C6.32812 50.3271 8.40981 51.5229 9.30234 51.929L28.8141 60.8397C30.1904 61.4699 31.9755 61.7969 33.75 61.7969C35.5245 61.7969 37.2938 61.4699 38.678 60.8384L58.1792 51.9303C59.0783 51.5242 61.1719 50.3351 61.1719 48.0859C61.1719 45.8368 59.0928 44.649 58.1871 44.2363Z" fill="#3E3E3E"/>
</svg>
