<svg width="186" height="19" viewBox="0 0 186 19" fill="none" xmlns="http://www.w3.org/2000/svg">
<path d="M9.656 8.69H6.254V12.182H3.878V8.69H0.476V6.494H3.878V3.002H6.254V6.494H9.656V8.69ZM24.364 11.606H19.36L18.532 14H15.886L20.404 1.418H23.338L27.856 14H25.192L24.364 11.606ZM23.68 9.59L21.862 4.334L20.044 9.59H23.68ZM28.8967 8.978C28.8967 7.97 29.0947 7.076 29.4907 6.296C29.8987 5.516 30.4507 4.916 31.1467 4.496C31.8427 4.076 32.6167 3.866 33.4687 3.866C34.1167 3.866 34.7347 4.01 35.3227 4.298C35.9107 4.574 36.3787 4.946 36.7267 5.414V0.68H39.2827V14H36.7267V12.524C36.4147 13.016 35.9767 13.412 35.4127 13.712C34.8487 14.012 34.1947 14.162 33.4507 14.162C32.6107 14.162 31.8427 13.946 31.1467 13.514C30.4507 13.082 29.8987 12.476 29.4907 11.696C29.0947 10.904 28.8967 9.998 28.8967 8.978ZM36.7447 9.014C36.7447 8.402 36.6247 7.88 36.3847 7.448C36.1447 7.004 35.8207 6.668 35.4127 6.44C35.0047 6.2 34.5667 6.08 34.0987 6.08C33.6307 6.08 33.1987 6.194 32.8027 6.422C32.4067 6.65 32.0827 6.986 31.8307 7.43C31.5907 7.862 31.4707 8.378 31.4707 8.978C31.4707 9.578 31.5907 10.106 31.8307 10.562C32.0827 11.006 32.4067 11.348 32.8027 11.588C33.2107 11.828 33.6427 11.948 34.0987 11.948C34.5667 11.948 35.0047 11.834 35.4127 11.606C35.8207 11.366 36.1447 11.03 36.3847 10.598C36.6247 10.154 36.7447 9.626 36.7447 9.014ZM41.096 8.978C41.096 7.97 41.294 7.076 41.69 6.296C42.098 5.516 42.65 4.916 43.346 4.496C44.042 4.076 44.816 3.866 45.668 3.866C46.316 3.866 46.934 4.01 47.522 4.298C48.11 4.574 48.578 4.946 48.926 5.414V0.68H51.482V14H48.926V12.524C48.614 13.016 48.176 13.412 47.612 13.712C47.048 14.012 46.394 14.162 45.65 14.162C44.81 14.162 44.042 13.946 43.346 13.514C42.65 13.082 42.098 12.476 41.69 11.696C41.294 10.904 41.096 9.998 41.096 8.978ZM48.944 9.014C48.944 8.402 48.824 7.88 48.584 7.448C48.344 7.004 48.02 6.668 47.612 6.44C47.204 6.2 46.766 6.08 46.298 6.08C45.83 6.08 45.398 6.194 45.002 6.422C44.606 6.65 44.282 6.986 44.03 7.43C43.79 7.862 43.67 8.378 43.67 8.978C43.67 9.578 43.79 10.106 44.03 10.562C44.282 11.006 44.606 11.348 45.002 11.588C45.41 11.828 45.842 11.948 46.298 11.948C46.766 11.948 47.204 11.834 47.612 11.606C48.02 11.366 48.344 11.03 48.584 10.598C48.824 10.154 48.944 9.626 48.944 9.014ZM57.5842 8.978C57.5842 7.97 57.7822 7.076 58.1782 6.296C58.5862 5.516 59.1322 4.916 59.8162 4.496C60.5122 4.076 61.2862 3.866 62.1382 3.866C62.8822 3.866 63.5302 4.016 64.0822 4.316C64.6462 4.616 65.0962 4.994 65.4322 5.45V4.028H67.9702V14H65.4322V12.542C65.1082 13.01 64.6582 13.4 64.0822 13.712C63.5182 14.012 62.8642 14.162 62.1202 14.162C61.2802 14.162 60.5122 13.946 59.8162 13.514C59.1322 13.082 58.5862 12.476 58.1782 11.696C57.7822 10.904 57.5842 9.998 57.5842 8.978ZM65.4322 9.014C65.4322 8.402 65.3122 7.88 65.0722 7.448C64.8322 7.004 64.5082 6.668 64.1002 6.44C63.6922 6.2 63.2542 6.08 62.7862 6.08C62.3182 6.08 61.8862 6.194 61.4902 6.422C61.0942 6.65 60.7702 6.986 60.5182 7.43C60.2782 7.862 60.1582 8.378 60.1582 8.978C60.1582 9.578 60.2782 10.106 60.5182 10.562C60.7702 11.006 61.0942 11.348 61.4902 11.588C61.8982 11.828 62.3302 11.948 62.7862 11.948C63.2542 11.948 63.6922 11.834 64.1002 11.606C64.5082 11.366 64.8322 11.03 65.0722 10.598C65.3122 10.154 65.4322 9.626 65.4322 9.014ZM75.9575 3.884C77.1455 3.884 78.1055 4.262 78.8375 5.018C79.5695 5.762 79.9355 6.806 79.9355 8.15V14H77.4155V8.492C77.4155 7.7 77.2175 7.094 76.8215 6.674C76.4255 6.242 75.8855 6.026 75.2015 6.026C74.5055 6.026 73.9535 6.242 73.5455 6.674C73.1495 7.094 72.9515 7.7 72.9515 8.492V14H70.4315V4.028H72.9515V5.27C73.2875 4.838 73.7135 4.502 74.2295 4.262C74.7575 4.01 75.3335 3.884 75.9575 3.884ZM86.7598 14.162C85.7998 14.162 84.9358 13.952 84.1678 13.532C83.3998 13.1 82.7938 12.494 82.3498 11.714C81.9178 10.934 81.7018 10.034 81.7018 9.014C81.7018 7.994 81.9238 7.094 82.3678 6.314C82.8238 5.534 83.4418 4.934 84.2218 4.514C85.0018 4.082 85.8718 3.866 86.8318 3.866C87.7918 3.866 88.6618 4.082 89.4418 4.514C90.2218 4.934 90.8338 5.534 91.2778 6.314C91.7338 7.094 91.9618 7.994 91.9618 9.014C91.9618 10.034 91.7278 10.934 91.2598 11.714C90.8038 12.494 90.1798 13.1 89.3878 13.532C88.6078 13.952 87.7318 14.162 86.7598 14.162ZM86.7598 11.966C87.2158 11.966 87.6418 11.858 88.0378 11.642C88.4458 11.414 88.7698 11.078 89.0098 10.634C89.2498 10.19 89.3698 9.65 89.3698 9.014C89.3698 8.066 89.1178 7.34 88.6138 6.836C88.1218 6.32 87.5158 6.062 86.7958 6.062C86.0758 6.062 85.4698 6.32 84.9778 6.836C84.4978 7.34 84.2578 8.066 84.2578 9.014C84.2578 9.962 84.4918 10.694 84.9598 11.21C85.4398 11.714 86.0398 11.966 86.7598 11.966ZM96.7444 6.098V10.922C96.7444 11.258 96.8224 11.504 96.9784 11.66C97.1464 11.804 97.4224 11.876 97.8064 11.876H98.9764V14H97.3924C95.2684 14 94.2064 12.968 94.2064 10.904V6.098H93.0184V4.028H94.2064V1.562H96.7444V4.028H98.9764V6.098H96.7444ZM106.405 3.884C107.161 3.884 107.833 4.052 108.421 4.388C109.009 4.712 109.465 5.198 109.789 5.846C110.125 6.482 110.293 7.25 110.293 8.15V14H107.773V8.492C107.773 7.7 107.575 7.094 107.179 6.674C106.783 6.242 106.243 6.026 105.559 6.026C104.863 6.026 104.311 6.242 103.903 6.674C103.507 7.094 103.309 7.7 103.309 8.492V14H100.789V0.68H103.309V5.27C103.633 4.838 104.065 4.502 104.605 4.262C105.145 4.01 105.745 3.884 106.405 3.884ZM121.959 8.798C121.959 9.158 121.935 9.482 121.887 9.77H114.597C114.657 10.49 114.909 11.054 115.353 11.462C115.797 11.87 116.343 12.074 116.991 12.074C117.927 12.074 118.593 11.672 118.989 10.868H121.707C121.419 11.828 120.867 12.62 120.051 13.244C119.235 13.856 118.233 14.162 117.045 14.162C116.085 14.162 115.221 13.952 114.453 13.532C113.697 13.1 113.103 12.494 112.671 11.714C112.251 10.934 112.041 10.034 112.041 9.014C112.041 7.982 112.251 7.076 112.671 6.296C113.091 5.516 113.679 4.916 114.435 4.496C115.191 4.076 116.061 3.866 117.045 3.866C117.993 3.866 118.839 4.07 119.583 4.478C120.339 4.886 120.921 5.468 121.329 6.224C121.749 6.968 121.959 7.826 121.959 8.798ZM119.349 8.078C119.337 7.43 119.103 6.914 118.647 6.53C118.191 6.134 117.633 5.936 116.973 5.936C116.349 5.936 115.821 6.128 115.389 6.512C114.969 6.884 114.711 7.406 114.615 8.078H119.349ZM126.319 5.576C126.643 5.048 127.063 4.634 127.579 4.334C128.107 4.034 128.707 3.884 129.379 3.884V6.53H128.713C127.921 6.53 127.321 6.716 126.913 7.088C126.517 7.46 126.319 8.108 126.319 9.032V14H123.799V4.028H126.319V5.576ZM139.181 14.162C138.365 14.162 137.633 14.018 136.985 13.73C136.337 13.43 135.821 13.028 135.437 12.524C135.065 12.02 134.861 11.462 134.825 10.85H137.363C137.411 11.234 137.597 11.552 137.921 11.804C138.257 12.056 138.671 12.182 139.163 12.182C139.643 12.182 140.015 12.086 140.279 11.894C140.555 11.702 140.693 11.456 140.693 11.156C140.693 10.832 140.525 10.592 140.189 10.436C139.865 10.268 139.343 10.088 138.623 9.896C137.879 9.716 137.267 9.53 136.787 9.338C136.319 9.146 135.911 8.852 135.563 8.456C135.227 8.06 135.059 7.526 135.059 6.854C135.059 6.302 135.215 5.798 135.527 5.342C135.851 4.886 136.307 4.526 136.895 4.262C137.495 3.998 138.197 3.866 139.001 3.866C140.189 3.866 141.137 4.166 141.845 4.766C142.553 5.354 142.943 6.152 143.015 7.16H140.603C140.567 6.764 140.399 6.452 140.099 6.224C139.811 5.984 139.421 5.864 138.929 5.864C138.473 5.864 138.119 5.948 137.867 6.116C137.627 6.284 137.507 6.518 137.507 6.818C137.507 7.154 137.675 7.412 138.011 7.592C138.347 7.76 138.869 7.934 139.577 8.114C140.297 8.294 140.891 8.48 141.359 8.672C141.827 8.864 142.229 9.164 142.565 9.572C142.913 9.968 143.093 10.496 143.105 11.156C143.105 11.732 142.943 12.248 142.619 12.704C142.307 13.16 141.851 13.52 141.251 13.784C140.663 14.036 139.973 14.162 139.181 14.162ZM154.444 8.798C154.444 9.158 154.42 9.482 154.372 9.77H147.082C147.142 10.49 147.394 11.054 147.838 11.462C148.282 11.87 148.828 12.074 149.476 12.074C150.412 12.074 151.078 11.672 151.474 10.868H154.192C153.904 11.828 153.352 12.62 152.536 13.244C151.72 13.856 150.718 14.162 149.53 14.162C148.57 14.162 147.706 13.952 146.938 13.532C146.182 13.1 145.588 12.494 145.156 11.714C144.736 10.934 144.526 10.034 144.526 9.014C144.526 7.982 144.736 7.076 145.156 6.296C145.576 5.516 146.164 4.916 146.92 4.496C147.676 4.076 148.546 3.866 149.53 3.866C150.478 3.866 151.324 4.07 152.068 4.478C152.824 4.886 153.406 5.468 153.814 6.224C154.234 6.968 154.444 7.826 154.444 8.798ZM151.834 8.078C151.822 7.43 151.588 6.914 151.132 6.53C150.676 6.134 150.118 5.936 149.458 5.936C148.834 5.936 148.306 6.128 147.874 6.512C147.454 6.884 147.196 7.406 147.1 8.078H151.834ZM159.217 6.098V10.922C159.217 11.258 159.295 11.504 159.451 11.66C159.619 11.804 159.895 11.876 160.279 11.876H161.449V14H159.865C157.741 14 156.679 12.968 156.679 10.904V6.098H155.491V4.028H156.679V1.562H159.217V4.028H161.449V6.098H159.217ZM172.676 4.028V14H170.138V12.74C169.814 13.172 169.388 13.514 168.86 13.766C168.344 14.006 167.78 14.126 167.168 14.126C166.388 14.126 165.698 13.964 165.098 13.64C164.498 13.304 164.024 12.818 163.676 12.182C163.34 11.534 163.172 10.766 163.172 9.878V4.028H165.692V9.518C165.692 10.31 165.89 10.922 166.286 11.354C166.682 11.774 167.222 11.984 167.906 11.984C168.602 11.984 169.148 11.774 169.544 11.354C169.94 10.922 170.138 10.31 170.138 9.518V4.028H172.676ZM177.682 5.468C178.006 5.012 178.45 4.634 179.014 4.334C179.59 4.022 180.244 3.866 180.976 3.866C181.828 3.866 182.596 4.076 183.28 4.496C183.976 4.916 184.522 5.516 184.918 6.296C185.326 7.064 185.53 7.958 185.53 8.978C185.53 9.998 185.326 10.904 184.918 11.696C184.522 12.476 183.976 13.082 183.28 13.514C182.596 13.946 181.828 14.162 180.976 14.162C180.244 14.162 179.596 14.012 179.032 13.712C178.48 13.412 178.03 13.034 177.682 12.578V18.752H175.162V4.028H177.682V5.468ZM182.956 8.978C182.956 8.378 182.83 7.862 182.578 7.43C182.338 6.986 182.014 6.65 181.606 6.422C181.21 6.194 180.778 6.08 180.31 6.08C179.854 6.08 179.422 6.2 179.014 6.44C178.618 6.668 178.294 7.004 178.042 7.448C177.802 7.892 177.682 8.414 177.682 9.014C177.682 9.614 177.802 10.136 178.042 10.58C178.294 11.024 178.618 11.366 179.014 11.606C179.422 11.834 179.854 11.948 180.31 11.948C180.778 11.948 181.21 11.828 181.606 11.588C182.014 11.348 182.338 11.006 182.578 10.562C182.83 10.118 182.956 9.59 182.956 8.978Z" fill="#3E3E3E"/>
</svg>
