<svg width="157" height="54" viewBox="0 0 157 54" fill="none" xmlns="http://www.w3.org/2000/svg">
<path d="M14.6974 14.7413C13.6061 16.0294 13.3811 17.9137 12.9274 21.6862L12.7586 23.1056C12.288 27.0206 12.0536 28.9781 13.1711 30.2381C14.2905 31.5 16.2611 31.5 20.2024 31.5H21.5936V34.7812H13.6249C13.023 34.7812 12.4586 34.9425 11.9749 35.2256L11.4499 33.6562C11.3416 33.3097 11.2132 32.9698 11.0655 32.6381C10.9582 32.3979 10.8341 32.1654 10.6943 31.9425C10.1599 31.0631 9.46425 30.3 8.3355 29.805C7.27425 29.3362 5.94675 29.1562 4.24988 29.1562C3.87692 29.1562 3.51923 29.3044 3.25551 29.5681C2.99179 29.8319 2.84363 30.1895 2.84363 30.5625C2.84363 30.9355 2.99179 31.2931 3.25551 31.5569C3.51923 31.8206 3.87692 31.9688 4.24988 31.9688C5.8005 31.9688 6.66863 32.1413 7.20113 32.3775C7.668 32.5838 7.96988 32.8744 8.2905 33.4031C8.34675 33.4969 8.37113 33.5363 8.3955 33.5831C8.41988 33.6281 8.45363 33.6919 8.51363 33.8212C8.60738 34.0275 8.65425 34.1588 8.79488 34.5788L10.4149 39.4444C10.4762 39.6201 10.5696 39.7829 10.6905 39.9244C11.0662 40.8946 11.7266 41.7285 12.585 42.3164C13.4433 42.9044 14.4595 43.219 15.4999 43.2188H21.5936V45.405C20.5233 45.7057 19.5429 46.264 18.7382 47.0312C17.9334 47.7983 17.3289 48.7509 16.9774 49.8056C16.8652 50.1579 16.8963 50.5402 17.0639 50.8698C17.2315 51.1994 17.5221 51.4497 17.8729 51.5665C18.2237 51.6833 18.6064 51.6573 18.9381 51.4941C19.2699 51.3309 19.524 51.0436 19.6455 50.6944C19.974 49.7102 20.6727 48.8925 21.5936 48.4144V50.25C21.5936 50.623 21.7418 50.9806 22.0055 51.2444C22.2692 51.5081 22.6269 51.6562 22.9999 51.6562C23.3728 51.6562 23.7305 51.5081 23.9942 51.2444C24.258 50.9806 24.4061 50.623 24.4061 50.25V48.4125C25.3274 48.891 26.0261 49.7095 26.3543 50.6944C26.4823 51.0348 26.7372 51.3124 27.0656 51.4689C27.3939 51.6253 27.7701 51.6485 28.1152 51.5335C28.4603 51.4184 28.7473 51.1742 28.9161 50.852C29.0849 50.5298 29.1223 50.1548 29.0205 49.8056C28.6692 48.7511 28.0649 47.7986 27.2605 47.0315C26.4561 46.2644 25.4761 45.706 24.4061 45.405V43.2188H30.4999C31.5403 43.219 32.5564 42.9044 33.4148 42.3164C34.2732 41.7285 34.9336 40.8946 35.3093 39.9244C35.4294 39.7827 35.5223 39.6199 35.583 39.4444L37.2068 34.5788C37.3455 34.1588 37.3905 34.0256 37.488 33.8212C37.5529 33.6774 37.6268 33.5377 37.7093 33.4031C38.0318 32.8744 38.3318 32.5838 38.7986 32.3775C39.333 32.1413 40.1993 31.9688 41.7499 31.9688C42.1228 31.9688 42.4805 31.8206 42.7442 31.5569C43.008 31.2931 43.1561 30.9355 43.1561 30.5625C43.1561 30.1895 43.008 29.8319 42.7442 29.5681C42.4805 29.3044 42.1228 29.1562 41.7499 29.1562C40.053 29.1562 38.7255 29.3344 37.6624 29.8031C36.5374 30.3 35.8399 31.0631 35.3055 31.9406C35.1656 32.1641 35.0415 32.3972 34.9343 32.6381C34.7859 32.9697 34.6569 33.3097 34.548 33.6562L34.0249 35.2256C33.5241 34.9335 32.9546 34.7802 32.3749 34.7812H24.4061V31.5H25.7955C29.7386 31.5 31.7093 31.5 32.8268 30.2381C33.948 28.9781 33.7118 27.0206 33.243 23.1056L33.0724 21.6862C32.6205 17.9137 32.3936 16.0294 31.3024 14.7413C30.9562 14.3323 30.5534 13.975 30.1061 13.68C28.6999 12.75 26.7986 12.75 22.9999 12.75C19.2011 12.75 17.3018 12.75 15.8936 13.68C15.4464 13.975 15.0436 14.3323 14.6974 14.7413Z" fill="#3E3E3E"/>
<path d="M68.5369 6.8895C67.2274 8.43525 66.9574 10.6965 66.4129 15.2235L66.2104 16.9267C65.6456 21.6247 65.3644 23.9737 66.7054 25.4857C68.0486 27 70.4134 27 75.1429 27H76.8124V30.9375H67.2499C66.5276 30.9375 65.8504 31.131 65.2699 31.4707L64.6399 29.5875C64.5099 29.1717 64.3559 28.7637 64.1786 28.3657C64.0498 28.0774 63.901 27.7985 63.7331 27.531C63.0919 26.4757 62.2571 25.56 60.9026 24.966C59.6291 24.4035 58.0361 24.1875 55.9999 24.1875C55.5523 24.1875 55.1231 24.3653 54.8066 24.6818C54.4902 24.9982 54.3124 25.4274 54.3124 25.875C54.3124 26.3226 54.4902 26.7518 54.8066 27.0682C55.1231 27.3847 55.5523 27.5625 55.9999 27.5625C57.8606 27.5625 58.9024 27.7695 59.5414 28.053C60.1016 28.3005 60.4639 28.6492 60.8486 29.2837C60.9161 29.3962 60.9454 29.4435 60.9746 29.4997C61.0039 29.5537 61.0444 29.6302 61.1164 29.7855C61.2289 30.033 61.2851 30.1905 61.4539 30.6945L63.3979 36.5332C63.4714 36.7441 63.5836 36.9394 63.7286 37.1092C64.1795 38.2735 64.9719 39.2742 66.002 39.9797C67.032 40.6853 68.2514 41.0627 69.4999 41.0625H76.8124V43.686C75.528 44.0468 74.3515 44.7168 73.3858 45.6374C72.4202 46.5579 71.6947 47.701 71.2729 48.9667C71.1383 49.3895 71.1755 49.8483 71.3767 50.2438C71.5778 50.6392 71.9266 50.9396 72.3475 51.0798C72.7685 51.22 73.2277 51.1888 73.6258 50.9929C74.0239 50.7971 74.3288 50.4523 74.4746 50.0332C74.8689 48.8522 75.7073 47.8709 76.8124 47.2972V49.5C76.8124 49.9475 76.9902 50.3768 77.3066 50.6932C77.6231 51.0097 78.0523 51.1875 78.4999 51.1875C78.9474 51.1875 79.3767 51.0097 79.6931 50.6932C80.0096 50.3768 80.1874 49.9475 80.1874 49.5V47.295C81.2929 47.8692 82.1314 48.8513 82.5251 50.0332C82.6788 50.4418 82.9847 50.7749 83.3787 50.9626C83.7728 51.1504 84.2242 51.1782 84.6383 51.0401C85.0523 50.9021 85.3968 50.609 85.5994 50.2224C85.8019 49.8358 85.8468 49.3858 85.7246 48.9667C85.303 47.7013 84.5779 46.5584 83.6127 45.6378C82.6474 44.7173 81.4714 44.0472 80.1874 43.686V41.0625H87.4999C88.7484 41.0627 89.9678 40.6853 90.9978 39.9797C92.0278 39.2742 92.8203 38.2735 93.2711 37.1092C93.4154 36.9392 93.5267 36.7439 93.5996 36.5332L95.5481 30.6945C95.7146 30.1905 95.7686 30.0307 95.8856 29.7855C95.9635 29.6128 96.0522 29.4452 96.1511 29.2837C96.5381 28.6492 96.8981 28.3005 97.4584 28.053C98.0996 27.7695 99.1391 27.5625 101 27.5625C101.447 27.5625 101.877 27.3847 102.193 27.0682C102.51 26.7518 102.687 26.3226 102.687 25.875C102.687 25.4274 102.51 24.9982 102.193 24.6818C101.877 24.3653 101.447 24.1875 101 24.1875C98.9636 24.1875 97.3706 24.4012 96.0949 24.9637C94.7449 25.56 93.9079 26.4757 93.2666 27.5287C93.0987 27.797 92.9498 28.0767 92.8211 28.3657C92.6431 28.7637 92.4883 29.1716 92.3576 29.5875L91.7299 31.4707C91.129 31.1202 90.4455 30.9362 89.7499 30.9375H80.1874V27H81.8546C86.5864 27 88.9511 27 90.2921 25.4857C91.6376 23.9737 91.3541 21.6247 90.7916 16.9267L90.5869 15.2235C90.0446 10.6965 89.7724 8.43525 88.4629 6.8895C88.0475 6.3988 87.5641 5.96997 87.0274 5.616C85.3399 4.5 83.0584 4.5 78.4999 4.5C73.9414 4.5 71.6621 4.5 69.9724 5.616C69.4357 5.96997 68.9523 6.3988 68.5369 6.8895Z" fill="#3E3E3E"/>
<path d="M125.697 14.7413C124.606 16.0294 124.381 17.9137 123.927 21.6862L123.759 23.1056C123.288 27.0206 123.054 28.9781 124.171 30.2381C125.291 31.5 127.261 31.5 131.202 31.5H132.594V34.7812H124.625C124.023 34.7812 123.459 34.9425 122.975 35.2256L122.45 33.6562C122.342 33.3097 122.213 32.9698 122.066 32.6381C121.958 32.3979 121.834 32.1654 121.694 31.9425C121.16 31.0631 120.464 30.3 119.336 29.805C118.274 29.3362 116.947 29.1562 115.25 29.1562C114.877 29.1562 114.519 29.3044 114.256 29.5681C113.992 29.8319 113.844 30.1895 113.844 30.5625C113.844 30.9355 113.992 31.2931 114.256 31.5569C114.519 31.8206 114.877 31.9688 115.25 31.9688C116.801 31.9688 117.669 32.1413 118.201 32.3775C118.668 32.5838 118.97 32.8744 119.291 33.4031C119.347 33.4969 119.371 33.5363 119.396 33.5831C119.42 33.6281 119.454 33.6919 119.514 33.8212C119.607 34.0275 119.654 34.1588 119.795 34.5788L121.415 39.4444C121.476 39.6201 121.57 39.7829 121.691 39.9244C122.066 40.8946 122.727 41.7285 123.585 42.3164C124.443 42.9044 125.459 43.219 126.5 43.2188H132.594V45.405C131.523 45.7057 130.543 46.264 129.738 47.0312C128.933 47.7983 128.329 48.7509 127.977 49.8056C127.865 50.1579 127.896 50.5402 128.064 50.8698C128.231 51.1994 128.522 51.4497 128.873 51.5665C129.224 51.6833 129.606 51.6573 129.938 51.4941C130.27 51.3309 130.524 51.0436 130.646 50.6944C130.974 49.7102 131.673 48.8925 132.594 48.4144V50.25C132.594 50.623 132.742 50.9806 133.006 51.2444C133.269 51.5081 133.627 51.6562 134 51.6562C134.373 51.6562 134.731 51.5081 134.994 51.2444C135.258 50.9806 135.406 50.623 135.406 50.25V48.4125C136.327 48.891 137.026 49.7095 137.354 50.6944C137.482 51.0348 137.737 51.3124 138.066 51.4689C138.394 51.6253 138.77 51.6485 139.115 51.5335C139.46 51.4184 139.747 51.1742 139.916 50.852C140.085 50.5298 140.122 50.1548 140.021 49.8056C139.669 48.7511 139.065 47.7986 138.261 47.0315C137.456 46.2644 136.476 45.706 135.406 45.405V43.2188H141.5C142.54 43.219 143.556 42.9044 144.415 42.3164C145.273 41.7285 145.934 40.8946 146.309 39.9244C146.429 39.7827 146.522 39.6199 146.583 39.4444L148.207 34.5788C148.346 34.1588 148.391 34.0256 148.488 33.8212C148.553 33.6774 148.627 33.5377 148.709 33.4031C149.032 32.8744 149.332 32.5838 149.799 32.3775C150.333 32.1413 151.199 31.9688 152.75 31.9688C153.123 31.9688 153.481 31.8206 153.744 31.5569C154.008 31.2931 154.156 30.9355 154.156 30.5625C154.156 30.1895 154.008 29.8319 153.744 29.5681C153.481 29.3044 153.123 29.1562 152.75 29.1562C151.053 29.1562 149.726 29.3344 148.662 29.8031C147.537 30.3 146.84 31.0631 146.306 31.9406C146.166 32.1641 146.041 32.3972 145.934 32.6381C145.786 32.9697 145.657 33.3097 145.548 33.6562L145.025 35.2256C144.524 34.9335 143.955 34.7802 143.375 34.7812H135.406V31.5H136.796C140.739 31.5 142.709 31.5 143.827 30.2381C144.948 28.9781 144.712 27.0206 144.243 23.1056L144.072 21.6862C143.621 17.9137 143.394 16.0294 142.302 14.7413C141.956 14.3323 141.553 13.975 141.106 13.68C139.7 12.75 137.799 12.75 134 12.75C130.201 12.75 128.302 12.75 126.894 13.68C126.446 13.975 126.044 14.3323 125.697 14.7413Z" fill="#3E3E3E"/>
</svg>
