<svg width="242" height="51" viewBox="0 0 242 51" fill="none" xmlns="http://www.w3.org/2000/svg">
<path d="M28.22 13.268V37H23.46V21.564L17.102 37H13.498L7.106 21.564V37H2.346V13.268H7.752L15.3 30.914L22.848 13.268H28.22ZM41.2901 37.306C39.4767 37.306 37.8447 36.9093 36.3941 36.116C34.9434 35.3 33.7987 34.1553 32.9601 32.682C32.1441 31.2087 31.7361 29.5087 31.7361 27.582C31.7361 25.6553 32.1554 23.9553 32.9941 22.482C33.8554 21.0087 35.0227 19.8753 36.4961 19.082C37.9694 18.266 39.6127 17.858 41.4261 17.858C43.2394 17.858 44.8827 18.266 46.3561 19.082C47.8294 19.8753 48.9854 21.0087 49.8241 22.482C50.6854 23.9553 51.1161 25.6553 51.1161 27.582C51.1161 29.5087 50.6741 31.2087 49.7901 32.682C48.9287 34.1553 47.7501 35.3 46.2541 36.116C44.7807 36.9093 43.1261 37.306 41.2901 37.306ZM41.2901 33.158C42.1514 33.158 42.9561 32.954 43.7041 32.546C44.4747 32.1153 45.0867 31.4807 45.5401 30.642C45.9934 29.8033 46.2201 28.7833 46.2201 27.582C46.2201 25.7913 45.7441 24.42 44.7921 23.468C43.8627 22.4933 42.7181 22.006 41.3581 22.006C39.9981 22.006 38.8534 22.4933 37.9241 23.468C37.0174 24.42 36.5641 25.7913 36.5641 27.582C36.5641 29.3727 37.0061 30.7553 37.8901 31.73C38.7967 32.682 39.9301 33.158 41.2901 33.158ZM59.3677 20.918C59.9797 20.0113 60.8184 19.2747 61.8837 18.708C62.9717 18.1413 64.2071 17.858 65.5897 17.858C67.1991 17.858 68.6497 18.2547 69.9417 19.048C71.2564 19.8413 72.2877 20.9747 73.0357 22.448C73.8064 23.8987 74.1917 25.5873 74.1917 27.514C74.1917 29.4407 73.8064 31.152 73.0357 32.648C72.2877 34.1213 71.2564 35.266 69.9417 36.082C68.6497 36.898 67.1991 37.306 65.5897 37.306C64.1844 37.306 62.9491 37.034 61.8837 36.49C60.8411 35.9233 60.0024 35.198 59.3677 34.314V37H54.6077V11.84H59.3677V20.918ZM69.3297 27.514C69.3297 26.3807 69.0917 25.406 68.6157 24.59C68.1624 23.7513 67.5504 23.1167 66.7797 22.686C66.0317 22.2553 65.2157 22.04 64.3317 22.04C63.4704 22.04 62.6544 22.2667 61.8837 22.72C61.1357 23.1507 60.5237 23.7853 60.0477 24.624C59.5944 25.4627 59.3677 26.4487 59.3677 27.582C59.3677 28.7153 59.5944 29.7013 60.0477 30.54C60.5237 31.3787 61.1357 32.0247 61.8837 32.478C62.6544 32.9087 63.4704 33.124 64.3317 33.124C65.2157 33.124 66.0317 32.8973 66.7797 32.444C67.5504 31.9907 68.1624 31.3447 68.6157 30.506C69.0917 29.6673 69.3297 28.67 69.3297 27.514ZM80.0647 15.92C79.226 15.92 78.5234 15.6593 77.9567 15.138C77.4127 14.594 77.1407 13.9253 77.1407 13.132C77.1407 12.3387 77.4127 11.6813 77.9567 11.16C78.5234 10.616 79.226 10.344 80.0647 10.344C80.9034 10.344 81.5947 10.616 82.1387 11.16C82.7054 11.6813 82.9887 12.3387 82.9887 13.132C82.9887 13.9253 82.7054 14.594 82.1387 15.138C81.5947 15.6593 80.9034 15.92 80.0647 15.92ZM82.4107 18.164V37H77.6507V18.164H82.4107ZM85.8896 27.582C85.8896 25.6327 86.2862 23.9327 87.0796 22.482C87.8729 21.0087 88.9722 19.8753 90.3776 19.082C91.7829 18.266 93.3922 17.858 95.2056 17.858C97.5402 17.858 99.4669 18.4473 100.986 19.626C102.527 20.782 103.558 22.414 104.08 24.522H98.9456C98.6736 23.706 98.2089 23.0713 97.5516 22.618C96.9169 22.142 96.1236 21.904 95.1716 21.904C93.8116 21.904 92.7349 22.4027 91.9416 23.4C91.1482 24.3747 90.7516 25.7687 90.7516 27.582C90.7516 29.3727 91.1482 30.7667 91.9416 31.764C92.7349 32.7387 93.8116 33.226 95.1716 33.226C97.0982 33.226 98.3562 32.3647 98.9456 30.642H104.08C103.558 32.682 102.527 34.3027 100.986 35.504C99.4442 36.7053 97.5176 37.306 95.2056 37.306C93.3922 37.306 91.7829 36.9093 90.3776 36.116C88.9722 35.3 87.8729 34.1667 87.0796 32.716C86.2862 31.2427 85.8896 29.5313 85.8896 27.582ZM106.343 27.514C106.343 25.61 106.717 23.9213 107.465 22.448C108.235 20.9747 109.267 19.8413 110.559 19.048C111.873 18.2547 113.335 17.858 114.945 17.858C116.35 17.858 117.574 18.1413 118.617 18.708C119.682 19.2747 120.532 19.9887 121.167 20.85V18.164H125.961V37H121.167V34.246C120.555 35.13 119.705 35.8667 118.617 36.456C117.551 37.0227 116.316 37.306 114.911 37.306C113.324 37.306 111.873 36.898 110.559 36.082C109.267 35.266 108.235 34.1213 107.465 32.648C106.717 31.152 106.343 29.4407 106.343 27.514ZM121.167 27.582C121.167 26.426 120.94 25.44 120.487 24.624C120.033 23.7853 119.421 23.1507 118.651 22.72C117.88 22.2667 117.053 22.04 116.169 22.04C115.285 22.04 114.469 22.2553 113.721 22.686C112.973 23.1167 112.361 23.7513 111.885 24.59C111.431 25.406 111.205 26.3807 111.205 27.514C111.205 28.6473 111.431 29.6447 111.885 30.506C112.361 31.3447 112.973 31.9907 113.721 32.444C114.491 32.8973 115.307 33.124 116.169 33.124C117.053 33.124 117.88 32.9087 118.651 32.478C119.421 32.0247 120.033 31.39 120.487 30.574C120.94 29.7353 121.167 28.738 121.167 27.582Z" fill="#3E3E3E"/>
<path d="M144.519 18.0003C144.375 17.9959 144.234 18.0416 144.117 18.13L137.268 23.3388C137.157 23.4234 137.074 23.5427 137.032 23.6796C136.989 23.8165 136.989 23.964 137.032 24.1008L139.648 32.529C139.69 32.6659 139.773 32.7852 139.884 32.8698C139.996 32.9544 140.13 33 140.267 33H148.733C148.87 33 149.004 32.9544 149.115 32.8698C149.227 32.7852 149.309 32.6659 149.352 32.529L151.968 24.1008C152.011 23.964 152.011 23.8165 151.968 23.6796C151.926 23.5427 151.843 23.4234 151.732 23.3388L144.883 18.13C144.777 18.0494 144.65 18.0042 144.519 18.0003Z" fill="#EE4131"/>
<path d="M164.117 18.4054L170.905 31.7838C170.967 31.907 171 32.0469 171 32.1892C171 32.3315 170.967 32.4713 170.905 32.5946C170.842 32.7178 170.752 32.8202 170.644 32.8914C170.535 32.9625 170.413 33 170.287 33H156.713C156.587 33 156.465 32.9625 156.356 32.8914C156.248 32.8202 156.158 32.7178 156.095 32.5946C156.033 32.4713 156 32.3315 156 32.1892C156 32.0469 156.033 31.907 156.095 31.7838L162.883 18.4054C162.945 18.2821 163.035 18.1798 163.144 18.1086C163.252 18.0375 163.375 18 163.5 18C163.625 18 163.748 18.0375 163.856 18.1086C163.965 18.1798 164.055 18.2821 164.117 18.4054Z" fill="#FDB024"/>
<path d="M175 32V19H188V32H175Z" fill="#00A769"/>
<path d="M199 32.5C198.032 32.5 197.122 32.3161 196.27 31.9484C195.418 31.5807 194.677 31.082 194.047 30.4525C193.418 29.823 192.919 29.0821 192.552 28.23C192.184 27.3779 192 26.4679 192 25.5C192 24.5321 192.183 23.6221 192.552 22.77C192.92 21.9179 193.418 21.177 194.047 20.5475C194.677 19.918 195.417 19.4193 196.27 19.0516C197.123 18.6839 198.033 18.5 199 18.5C199.967 18.5 200.877 18.6839 201.73 19.0516C202.583 19.4193 203.323 19.918 203.952 20.5475C204.582 21.177 205.08 21.9179 205.449 22.77C205.818 23.6221 206.001 24.5321 206 25.5C205.999 26.4679 205.815 27.3779 205.448 28.23C205.082 29.0821 204.583 29.823 203.952 30.4525C203.322 31.082 202.581 31.5809 201.73 31.9491C200.879 32.3173 199.969 32.5009 199 32.5Z" fill="#5B5498"/>
<path d="M220.5 18.5H213.5L210 25.5L213.5 32.5H220.5L224 25.5L220.5 18.5Z" fill="#99C7DF"/>
<path d="M242 26.5H236V32.5H234V26.5H228V24.5H234V18.5H236V24.5H242V26.5Z" fill="#1E1E1E"/>
</svg>
