<svg width="89" height="91" viewBox="0 0 89 91" fill="none" xmlns="http://www.w3.org/2000/svg">
<path fill-rule="evenodd" clip-rule="evenodd" d="M61.0938 70.8125H72.1562C72.8897 70.8125 73.5932 70.5162 74.1118 69.9887C74.6305 69.4613 74.9219 68.7459 74.9219 68V56.75C74.9219 56.0041 74.6305 55.2887 74.1118 54.7613C73.5932 54.2338 72.8897 53.9375 72.1562 53.9375H61.0938C60.3603 53.9375 59.6568 54.2338 59.1382 54.7613C58.6195 55.2887 58.3281 56.0041 58.3281 56.75V68C58.3281 68.7459 58.6195 69.4613 59.1382 69.9887C59.6568 70.5162 60.3603 70.8125 61.0938 70.8125ZM72.1562 79.25C75.0902 79.25 77.904 78.0647 79.9786 75.9549C82.0532 73.8452 83.2188 70.9837 83.2188 68V56.75C83.2188 53.7663 82.0532 50.9048 79.9786 48.7951C77.904 46.6853 75.0902 45.5 72.1562 45.5H61.9234L57.2385 37.1638C58.4483 36.1072 59.4192 34.7971 60.0846 33.3233C60.7501 31.8495 61.0943 30.2468 61.0938 28.625V17.375C61.0938 14.3913 59.9282 11.5298 57.8536 9.42005C55.779 7.31026 52.9652 6.125 50.0312 6.125H38.9688C36.0348 6.125 33.221 7.31026 31.1464 9.42005C29.0718 11.5298 27.9062 14.3913 27.9062 17.375V28.625C27.9062 32.0394 29.3997 35.0994 31.7615 37.1638L27.0766 45.5H16.8438C13.9098 45.5 11.096 46.6853 9.02138 48.7951C6.94676 50.9048 5.78125 53.7663 5.78125 56.75V68C5.78125 70.9837 6.94676 73.8452 9.02138 75.9549C11.096 78.0647 13.9098 79.25 16.8438 79.25H27.9062C30.8402 79.25 33.654 78.0647 35.7286 75.9549C37.8032 73.8452 38.9688 70.9837 38.9688 68V56.75C38.9688 53.3356 37.4753 50.2756 35.1135 48.2113L39.7984 39.875H49.2016L53.8921 48.2113C51.5247 50.2813 50.0312 53.33 50.0312 56.75V68C50.0312 70.9837 51.1968 73.8452 53.2714 75.9549C55.346 78.0647 58.1598 79.25 61.0938 79.25H72.1562ZM16.8438 70.8125H27.9062C28.6397 70.8125 29.3432 70.5162 29.8618 69.9887C30.3805 69.4613 30.6719 68.7459 30.6719 68V56.75C30.6719 56.0041 30.3805 55.2887 29.8618 54.7613C29.3432 54.2338 28.6397 53.9375 27.9062 53.9375H16.8438C16.1103 53.9375 15.4068 54.2338 14.8882 54.7613C14.3695 55.2887 14.0781 56.0041 14.0781 56.75V68C14.0781 68.7459 14.3695 69.4613 14.8882 69.9887C15.4068 70.5162 16.1103 70.8125 16.8438 70.8125ZM50.0312 31.4375H38.9688C38.2353 31.4375 37.5318 31.1412 37.0132 30.6137C36.4945 30.0863 36.2031 29.3709 36.2031 28.625V17.375C36.2031 16.6291 36.4945 15.9137 37.0132 15.3863C37.5318 14.8588 38.2353 14.5625 38.9688 14.5625H50.0312C50.7647 14.5625 51.4682 14.8588 51.9868 15.3863C52.5055 15.9137 52.7969 16.6291 52.7969 17.375V28.625C52.7969 29.3709 52.5055 30.0863 51.9868 30.6137C51.4682 31.1412 50.7647 31.4375 50.0312 31.4375Z" fill="#3E3E3E"/>
</svg>
